<svg xmlns="http://www.w3.org/2000/svg" viewBox="0 0 54 64"><defs><style>.cls-1,.cls-2{fill:none;stroke-miterlimit:10;stroke-width:2px;}.cls-1{stroke:#176bcb;}.cls-2{stroke:#999;}</style></defs><title>Ресурс 1</title><g id="Слой_2" data-name="Слой 2"><g id="Layer_1" data-name="Layer 1"><line class="cls-1" x1="27" y1="23" x2="27" y2="28"/><line class="cls-1" x1="27" y1="44" x2="27" y2="49"/><line class="cls-1" x1="8" y1="44" x2="8" y2="49"/><line class="cls-1" x1="46" y1="44" x2="46" y2="49"/><rect class="cls-1" x="1" y="49" width="14" height="14"/><rect class="cls-1" x="1" y="49" width="14" height="14"/><line class="cls-2" x1="8" y1="58" x2="4" y2="58"/><line class="cls-2" x1="4" y1="54" x2="12" y2="54"/><rect class="cls-1" x="20" y="49" width="14" height="14"/><line class="cls-2" x1="27" y1="58" x2="23" y2="58"/><line class="cls-2" x1="23" y1="54" x2="31" y2="54"/><rect class="cls-1" x="39" y="49" width="14" height="14"/><line class="cls-2" x1="46" y1="58" x2="42" y2="58"/><line class="cls-2" x1="42" y1="54" x2="50" y2="54"/><rect class="cls-1" x="8" y="7" width="38" height="16"/><rect class="cls-1" x="8" y="1" width="38" height="6"/><line class="cls-2" x1="42" y1="15" x2="12" y2="15"/><line class="cls-2" x1="42" y1="19" x2="12" y2="19"/><line class="cls-2" x1="12" y1="11" x2="27" y2="11"/><line class="cls-1" x1="12" y1="4" x2="14" y2="4"/><line class="cls-1" x1="16" y1="4" x2="18" y2="4"/><line class="cls-1" x1="20" y1="4" x2="22" y2="4"/><rect class="cls-1" x="1" y="28" width="52" height="16"/><rect class="cls-1" x="5" y="32" width="44" height="8"/><line class="cls-2" x1="22" y1="36" x2="24" y2="36"/><line class="cls-2" x1="26" y1="36" x2="28" y2="36"/><line class="cls-2" x1="30" y1="36" x2="32" y2="36"/></g></g></svg>