<svg xmlns="http://www.w3.org/2000/svg" viewBox="0 0 64 58"><defs><style>.cls-1,.cls-2{fill:none;stroke-miterlimit:10;stroke-width:2px;}.cls-1{stroke:#176bcb;}.cls-2{stroke:#999;}</style></defs><title>Ресурс 1</title><g id="Слой_2" data-name="Слой 2"><g id="Layer_1" data-name="Layer 1"><polyline class="cls-1" points="29 26 29 7 63 7 63 47 48 47"/><rect class="cls-1" x="29" y="1" width="34" height="6"/><line class="cls-1" x1="33" y1="4" x2="35" y2="4"/><line class="cls-1" x1="37" y1="4" x2="39" y2="4"/><line class="cls-1" x1="41" y1="4" x2="43" y2="4"/><line class="cls-2" x1="33" y1="13" x2="38" y2="13"/><line class="cls-2" x1="38" y1="21" x2="46" y2="21"/><line class="cls-2" x1="38" y1="25" x2="46" y2="25"/><line class="cls-2" x1="48" y1="21" x2="54" y2="21"/><line class="cls-2" x1="33" y1="17" x2="46" y2="17"/><line class="cls-2" x1="48" y1="25" x2="59" y2="25"/><line class="cls-2" x1="48.01" y1="17" x2="54.01" y2="17"/><line class="cls-2" x1="33" y1="29" x2="38" y2="29"/><line class="cls-2" x1="38" y1="37" x2="46" y2="37"/><line class="cls-2" x1="48" y1="37" x2="54" y2="37"/><line class="cls-2" x1="33" y1="33" x2="46" y2="33"/><line class="cls-2" x1="48" y1="41" x2="59" y2="41"/><line class="cls-2" x1="48.01" y1="33" x2="54.01" y2="33"/><circle class="cls-1" cx="5" cy="3" r="2"/><line class="cls-1" x1="11" x2="11" y2="6"/><line class="cls-1" x1="15" x2="15" y2="6"/><line class="cls-1" x1="5" y1="29" x2="5" y2="35"/><line class="cls-1" x1="1" y1="29" x2="1" y2="35"/><circle class="cls-1" cx="61" cy="55" r="2"/><line class="cls-1" x1="55" y1="52" x2="55" y2="58"/><line class="cls-1" x1="51" y1="52" x2="51" y2="58"/><rect class="cls-1" x="1" y="41" width="44" height="16"/><line class="cls-2" x1="4" y1="45" x2="6" y2="45"/><line class="cls-2" x1="8" y1="45" x2="10" y2="45"/><line class="cls-2" x1="12" y1="45" x2="14" y2="45"/><line class="cls-2" x1="16" y1="45" x2="18" y2="45"/><line class="cls-2" x1="20" y1="45" x2="22" y2="45"/><line class="cls-2" x1="24" y1="45" x2="26" y2="45"/><line class="cls-2" x1="28" y1="45" x2="30" y2="45"/><line class="cls-2" x1="32" y1="45" x2="34" y2="45"/><line class="cls-2" x1="36" y1="45" x2="38" y2="45"/><line class="cls-2" x1="40" y1="45" x2="42" y2="45"/><line class="cls-2" x1="6" y1="49" x2="8" y2="49"/><line class="cls-2" x1="10" y1="49" x2="12" y2="49"/><line class="cls-2" x1="14" y1="49" x2="16" y2="49"/><line class="cls-2" x1="18" y1="49" x2="20" y2="49"/><line class="cls-2" x1="22" y1="49" x2="24" y2="49"/><line class="cls-2" x1="26" y1="49" x2="28" y2="49"/><line class="cls-2" x1="30" y1="49" x2="32" y2="49"/><line class="cls-2" x1="34" y1="49" x2="36" y2="49"/><line class="cls-2" x1="38" y1="49" x2="40" y2="49"/><line class="cls-2" x1="4" y1="53" x2="6" y2="53"/><line class="cls-2" x1="8" y1="53" x2="10" y2="53"/><line class="cls-2" x1="12" y1="53" x2="34" y2="53"/><line class="cls-2" x1="36" y1="53" x2="38" y2="53"/><line class="cls-2" x1="40" y1="53" x2="42" y2="53"/><path class="cls-1" d="M29,28v3a2,2,0,0,1-2,2H11a2,2,0,0,0,0,4H21a2,2,0,0,1,2,2v2"/><line class="cls-1" x1="12" y1="17" x2="14" y2="17"/><line class="cls-1" x1="16" y1="17" x2="18" y2="17"/><line class="cls-1" x1="20" y1="17" x2="22" y2="17"/><path class="cls-1" d="M12,23H11a2,2,0,0,1-2-2V13a2,2,0,0,1,2-2h1"/><path class="cls-1" d="M22,23h1a2,2,0,0,0,2-2V13a2,2,0,0,0-2-2H22"/></g></g></svg>