<svg xmlns="http://www.w3.org/2000/svg" viewBox="0 0 62 56"><defs><style>.cls-1,.cls-2{fill:none;stroke-miterlimit:10;stroke-width:2px;}.cls-1{stroke:#176bcb;}.cls-2{stroke:#999;}</style></defs><title>Ресурс 1</title><g id="Слой_2" data-name="Слой 2"><g id="Layer_1" data-name="Layer 1"><rect class="cls-1" x="1" y="9" width="60" height="46"/><rect class="cls-1" x="1" y="1" width="60" height="8"/><line class="cls-1" x1="4" y1="5" x2="6" y2="5"/><line class="cls-1" x1="8" y1="5" x2="10" y2="5"/><line class="cls-1" x1="12" y1="5" x2="14" y2="5"/><line class="cls-1" x1="16" y1="5" x2="58" y2="5"/><polyline class="cls-1" points="58 30 52 30 50 26 44 26 42 31 36 31 34 33 28 33 26 29 20 29 18 34 12 34 10 38 4 38"/><line class="cls-2" x1="5" y1="52" x2="5" y2="43"/><line class="cls-2" x1="9" y1="52" x2="9" y2="46"/><line class="cls-2" x1="13" y1="52" x2="13" y2="39"/><line class="cls-2" x1="17" y1="52" x2="17" y2="41"/><line class="cls-2" x1="21" y1="52" x2="21" y2="38"/><line class="cls-2" x1="25" y1="52" x2="25" y2="35"/><line class="cls-2" x1="29" y1="52" x2="29" y2="37"/><line class="cls-2" x1="33" y1="52" x2="33" y2="42"/><line class="cls-2" x1="37" y1="52" x2="37" y2="36"/><line class="cls-2" x1="41" y1="52" x2="41" y2="40"/><line class="cls-2" x1="45" y1="52" x2="45" y2="33"/><line class="cls-2" x1="49" y1="52" x2="49" y2="34"/><line class="cls-2" x1="53" y1="52" x2="53" y2="39"/><line class="cls-2" x1="57" y1="52" x2="57" y2="35"/><line class="cls-2" x1="54" y1="17" x2="52" y2="17"/><line class="cls-2" x1="50" y1="17" x2="48" y2="17"/><line class="cls-2" x1="46" y1="17" x2="44" y2="17"/><line class="cls-2" x1="8" y1="25" x2="22" y2="25"/><line class="cls-2" x1="8" y1="29" x2="15" y2="29"/><line class="cls-2" x1="32" y1="17" x2="40" y2="17"/><line class="cls-2" x1="26" y1="21" x2="34" y2="21"/><line class="cls-2" x1="26" y1="17" x2="30" y2="17"/><rect class="cls-2" x="9" y="17" width="12" height="4"/><polyline class="cls-2" points="57 27 57 13 5 13 5 35"/></g></g></svg>