<svg xmlns="http://www.w3.org/2000/svg" viewBox="0 0 327.75 327.75"><defs><style>.cls-1{fill:#316eb6;}</style></defs><title>Ресурс 1</title><g id="Слой_2" data-name="Слой 2"><g id="Слой_1-2" data-name="Слой 1"><path class="cls-1" d="M96.21,124.26c-.37.55-.71,1.08-1,1.59.33-.51.67-1,1-1.59Zm0,0"/><path class="cls-1" d="M95.18,201.9l1,1.57-1-1.57Zm0,0"/><path class="cls-1" d="M231.55,203.48c.36-.55.71-1.07,1-1.58-.32.5-.67,1-1,1.58Zm0,0"/><path class="cls-1" d="M276.29,87.24A137.23,137.23,0,0,0,240.5,51.46a82.78,82.78,0,0,0-153.25,0,137.24,137.24,0,0,0-35.81,35.8,82.78,82.78,0,0,0,0,153.26,137.28,137.28,0,0,0,35.78,35.78,82.78,82.78,0,0,0,153.25,0,137.18,137.18,0,0,0,35.8-35.8,82.78,82.78,0,0,0,0-153.25Zm-40-25.06A125.93,125.93,0,0,1,266.58,92.9l-34,33c-1.29-2-2.91-4.42-4.8-7-6-8.2-14.95-18.21-25.73-24L233.4,64.95h0ZM97.77,163.88A66.11,66.11,0,1,1,163.88,230a66.18,66.18,0,0,1-66.11-66.11ZM163.88,11.2a71.53,71.53,0,0,1,57.89,29.53,135.9,135.9,0,0,0-115.78,0A71.55,71.55,0,0,1,163.88,11.2Zm0,27.78a124.14,124.14,0,0,1,62.75,16.95L189.79,91A77.32,77.32,0,0,0,138,91L101.12,55.93A124.16,124.16,0,0,1,163.88,39ZM91.45,62.18l34.26,32.65c-10.81,5.85-19.73,15.9-25.77,24.1-1.4,1.9-2.64,3.7-3.72,5.33-.37.55-.71,1.08-1,1.59l-34-33A125.93,125.93,0,0,1,91.45,62.18ZM40.72,106a135.9,135.9,0,0,0,0,115.78A71.54,71.54,0,0,1,11.2,163.88S9.88,132.48,40.72,106ZM39,163.88a124.12,124.12,0,0,1,16.1-61.29l36.09,35a77.34,77.34,0,0,0,0,52.61l-36.09,35A124.13,124.13,0,0,1,39,163.88Zm22.19,71,34-33,1,1.57c1.07,1.61,2.3,3.41,3.69,5.29,6,8.22,15,18.3,25.82,24.17l-29,27.65-5.25,5a126,126,0,0,1-30.28-30.71Zm102.71,81.7A71.53,71.53,0,0,1,106,287a135.9,135.9,0,0,0,115.78,0,71.54,71.54,0,0,1-57.89,29.53Zm0-27.78a124.16,124.16,0,0,1-62.75-16.95L138,236.72a77.29,77.29,0,0,0,51.82,0l36.84,35.11a124.15,124.15,0,0,1-62.75,16.95Zm72.43-23.2-2.79-2.64h0l-31.48-30c10.88-5.89,19.85-16,25.9-24.27,1.35-1.84,2.56-3.59,3.61-5.17.36-.55.71-1.07,1-1.58l34,33a126,126,0,0,1-30.28,30.71Zm36.37-40.41-36.09-35a77.28,77.28,0,0,0,0-52.61l36.09-35a124.66,124.66,0,0,1,0,122.57ZM287,221.77A135.91,135.91,0,0,0,287,106a71.51,71.51,0,0,1,0,115.78Zm0,0"/></g></g></svg>