<svg xmlns="http://www.w3.org/2000/svg" viewBox="0 0 64 54"><defs><style>.cls-1{fill:none;stroke:#176ecc;stroke-miterlimit:10;stroke-width:2px;}</style></defs><title>Ресурс 1</title><g id="Слой_2" data-name="Слой 2"><g id="Layer_1" data-name="Layer 1"><polyline class="cls-1" points="5 6 1 6 1 43 28 43"/><polyline class="cls-1" points="36 43 63 43 63 6 59 6"/><polyline class="cls-1" points="28 39 5 39 5 1 28 1 32 5 36 1 59 1 59 39 36 39"/><line class="cls-1" x1="32" y1="5" x2="32" y2="7"/><line class="cls-1" x1="8" y1="18" x2="17" y2="18"/><line class="cls-1" x1="8" y1="14" x2="17" y2="14"/><line class="cls-1" x1="8" y1="22" x2="17" y2="22"/><line class="cls-1" x1="8" y1="26" x2="17" y2="26"/><line class="cls-1" x1="8" y1="30" x2="17" y2="30"/><line class="cls-1" x1="8" y1="34" x2="22" y2="34"/><line class="cls-1" x1="47" y1="14" x2="56" y2="14"/><line class="cls-1" x1="47" y1="18" x2="56" y2="18"/><line class="cls-1" x1="47" y1="22" x2="56" y2="22"/><line class="cls-1" x1="47" y1="26" x2="56" y2="26"/><line class="cls-1" x1="47" y1="30" x2="56" y2="30"/><line class="cls-1" x1="42" y1="34" x2="56" y2="34"/><rect class="cls-1" x="9" y="6" width="12" height="4"/><polyline class="cls-1" points="55 11 55 6 42 6"/><line class="cls-1" x1="50" y1="10" x2="52" y2="10"/><line class="cls-1" x1="46" y1="10" x2="48" y2="10"/><line class="cls-1" x1="42" y1="10" x2="44" y2="10"/><circle class="cls-1" cx="32" cy="22" r="12"/><path class="cls-1" d="M28,33V49a4,4,0,0,0,8,0V33"/><line class="cls-1" x1="32" y1="38" x2="32" y2="40"/><line class="cls-1" x1="32" y1="42" x2="32" y2="44"/><line class="cls-1" x1="32" y1="46" x2="32" y2="48"/></g></g></svg>