<svg xmlns="http://www.w3.org/2000/svg" viewBox="0 0 64 62"><defs><style>.cls-1,.cls-2{fill:none;stroke:#176ecc;stroke-width:2px;}.cls-1{stroke-miterlimit:10;}.cls-2{stroke-linejoin:round;}</style></defs><title>Ресурс 1</title><g id="Слой_2" data-name="Слой 2"><g id="Layer_1" data-name="Layer 1"><line class="cls-1" x1="58" y1="55" x2="58" y2="28"/><path class="cls-1" d="M37,21H8a2,2,0,0,0-2,2V55"/><path class="cls-1" d="M40,55l-2,2H26l-2-2H1v2a4,4,0,0,0,4,4H59a4,4,0,0,0,4-4V55Z"/><rect class="cls-1" x="10" y="25" width="26" height="26"/><path class="cls-1" d="M31,45c0,1.66-3.58,2-8,2s-8-.34-8-2"/><polyline class="cls-1" points="31 45 31 42 26 39 25 38"/><polyline class="cls-1" points="15 45 15 42 20 39 21 38"/><path class="cls-1" d="M27,34a4,4,0,0,1-4,4h0a4,4,0,0,1-4-4V33a4,4,0,0,1,4-4h0a4,4,0,0,1,4,4Z"/><line class="cls-1" x1="42" y1="48" x2="44" y2="48"/><line class="cls-1" x1="46" y1="48" x2="48" y2="48"/><line class="cls-1" x1="50" y1="48" x2="52" y2="48"/><polygon class="cls-2" points="40 9 40 29 44 25 63 25 63 9 40 9"/><line class="cls-1" x1="44" y1="13" x2="50" y2="13"/><line class="cls-1" x1="52" y1="13" x2="59" y2="13"/><line class="cls-1" x1="44" y1="17" x2="55" y2="17"/><line class="cls-1" x1="53" y1="21" x2="57" y2="21"/><line class="cls-1" x1="44" y1="21" x2="51" y2="21"/><polygon class="cls-2" points="1 1 1 21 5 17 31 17 31 1 1 1"/><line class="cls-2" x1="5" y1="5" x2="21" y2="5"/><line class="cls-2" x1="23" y1="5" x2="28" y2="5"/><line class="cls-2" x1="5" y1="9" x2="28" y2="9"/><line class="cls-2" x1="5" y1="13" x2="12" y2="13"/><line class="cls-2" x1="14" y1="13" x2="18" y2="13"/></g></g></svg>