<svg xmlns="http://www.w3.org/2000/svg" viewBox="0 0 64 60"><defs><style>.cls-1{fill:none;stroke:#fff;stroke-miterlimit:10;stroke-width:2px;}</style></defs><title>Ресурс 1</title><g id="Слой_2" data-name="Слой 2"><g id="Layer_1" data-name="Layer 1"><polyline class="cls-1" points="32.44 59 9 59 9 9 55 9 55 59 30.72 59"/><polyline class="cls-1" points="41 55 51 55 51 13 13 13 13 55 45.22 55"/><rect class="cls-1" x="9" y="1" width="46" height="8"/><line class="cls-1" x1="12" y1="5" x2="14" y2="5"/><line class="cls-1" x1="16" y1="5" x2="18" y2="5"/><line class="cls-1" x1="20" y1="5" x2="22" y2="5"/><line class="cls-1" x1="24" y1="5" x2="52" y2="5"/><polyline class="cls-1" points="58 13 63 13 63 55 58 55"/><line class="cls-1" x1="63" y1="21" x2="58" y2="21"/><line class="cls-1" x1="60" y1="17" x2="58" y2="17"/><polyline class="cls-1" points="6 13 1 13 1 55 6 55"/><line class="cls-1" x1="6" y1="21" x2="1" y2="21"/><line class="cls-1" x1="6" y1="17" x2="4" y2="17"/></g></g></svg>