<svg xmlns="http://www.w3.org/2000/svg" viewBox="0 0 87.58 95.94"><defs><style>.cls-1{fill:#fff;}</style></defs><title>Ресурс 1</title><g id="Слой_2" data-name="Слой 2"><g id="Layer_1" data-name="Layer 1"><path class="cls-1" d="M87.58,95.94H0V94A43.73,43.73,0,0,1,32.56,51.66a27.06,27.06,0,1,1,22.46,0A43.71,43.71,0,0,1,87.58,94ZM3.93,92.05H83.65A39.83,39.83,0,0,0,53.54,55.29L53,55.13a3.56,3.56,0,0,1-2.44-3.4,3.6,3.6,0,0,1,2.21-3.33,23.16,23.16,0,1,0-18,0,3.6,3.6,0,0,1-.25,6.74l-.49.14A39.85,39.85,0,0,0,3.93,92.05Z"/></g></g></svg>