<svg xmlns="http://www.w3.org/2000/svg" viewBox="0 0 111.74 116.56"><defs><style>.cls-1{fill:#fff;}</style></defs><title>Ресурс 1</title><g id="Слой_2" data-name="Слой 2"><g id="Layer_1" data-name="Layer 1"><path class="cls-1" d="M7.12,75.14H0V55.08A45.09,45.09,0,0,1,45.08,10v3.88a41.2,41.2,0,0,0-41.2,41.2V71.26H7.12Z"/><path class="cls-1" d="M90.17,75.14H83V71.26h3.24V55.08a41.09,41.09,0,0,0-1.12-9.55l3.78-.9a45,45,0,0,1,1.23,10.45Z"/><path class="cls-1" d="M21.44,31.44,18.69,28.7A37.08,37.08,0,0,1,45.08,17.77v3.88A33.22,33.22,0,0,0,21.44,31.44Z"/><path class="cls-1" d="M72.69,91.11a8,8,0,0,1-8-8V63.28a8,8,0,1,1,16,0v5.61H76.79V63.28a4.1,4.1,0,1,0-8.2,0V83.13a4.1,4.1,0,1,0,8.2,0V77.52h3.88v5.61a8,8,0,0,1-8,8Z"/><path class="cls-1" d="M78.73,79.46A6.26,6.26,0,1,1,85,73.21,6.26,6.26,0,0,1,78.73,79.46Zm0-8.63a2.37,2.37,0,1,0,2.37,2.37A2.37,2.37,0,0,0,78.73,70.83Z"/><path class="cls-1" d="M17.47,91.11a8,8,0,0,1-8-8V77.52h3.88v5.61a4.1,4.1,0,1,0,8.2,0V63.28a4.1,4.1,0,1,0-8.2,0v5.61H9.49V63.28a8,8,0,0,1,16,0V83.13a8,8,0,0,1-8,8Z"/><path class="cls-1" d="M11.43,79.46a6.26,6.26,0,1,1,6.26-6.26A6.26,6.26,0,0,1,11.43,79.46Zm0-8.63a2.37,2.37,0,1,0,2.37,2.37A2.38,2.38,0,0,0,11.43,70.83Z"/><path class="cls-1" d="M53.49,116.56H42.92a6.26,6.26,0,1,1,0-12.51H53.49Zm-10.57-8.63a2.37,2.37,0,1,0,0,4.75h6.69v-4.75Z"/><path class="cls-1" d="M51.55,112.25v-3.88A25.27,25.27,0,0,0,76.79,83.13h3.88A29.15,29.15,0,0,1,51.55,112.25Z"/><path class="cls-1" d="M49.61,60.13V47H43.14V0h68.6V47h-49ZM47,43.14h6.47v7.61l7.61-7.61h46.75V3.88H47Z"/><rect class="cls-1" x="57.59" y="12.94" width="15.1" height="3.88"/><rect class="cls-1" x="57.59" y="21.57" width="39.69" height="3.88"/><rect class="cls-1" x="57.59" y="30.2" width="30.63" height="3.88"/></g></g></svg>