<svg xmlns="http://www.w3.org/2000/svg" viewBox="0 0 124.5 121.5"><defs><style>.cls-1,.cls-2,.cls-3{fill:none;stroke:#316eb6;stroke-miterlimit:10;stroke-width:4.5px;}.cls-2{stroke-dasharray:4.74 4.74;}.cls-3{stroke-dasharray:4.62 4.62;}</style></defs><title>Ресурс 2</title><g id="Слой_2" data-name="Слой 2"><g id="Layer_1" data-name="Layer 1"><polyline class="cls-1" points="4.5 87.25 2.25 87.25 2.25 85"/><line class="cls-2" x1="2.25" y1="80.27" x2="2.25" y2="6.87"/><polyline class="cls-1" points="2.25 4.5 2.25 2.25 4.5 2.25"/><line class="cls-3" x1="9.12" y1="2.25" x2="117.69" y2="2.25"/><polyline class="cls-1" points="120 2.25 122.25 2.25 122.25 4.5"/><line class="cls-2" x1="122.25" y1="9.24" x2="122.25" y2="82.63"/><polyline class="cls-1" points="122.25 85 122.25 87.25 120 87.25"/><line class="cls-3" x1="115.38" y1="87.25" x2="6.81" y2="87.25"/><rect class="cls-1" x="12.25" y="12.25" width="100" height="65"/><polyline class="cls-1" points="12.25 77.25 51.87 37.63 76.57 62.33 86.95 51.95 112.25 77.25"/><circle class="cls-1" cx="73.28" cy="30.19" r="7"/><rect class="cls-1" x="2.25" y="97.25" width="120" height="22"/><line class="cls-1" x1="113.02" y1="97.25" x2="113.02" y2="104.25"/><line class="cls-1" x1="103.79" y1="97.25" x2="103.79" y2="104.25"/><line class="cls-1" x1="94.56" y1="97.25" x2="94.56" y2="104.25"/><line class="cls-1" x1="85.33" y1="97.25" x2="85.33" y2="104.25"/><line class="cls-1" x1="76.1" y1="97.25" x2="76.1" y2="104.25"/><line class="cls-1" x1="66.87" y1="97.25" x2="66.87" y2="104.25"/><line class="cls-1" x1="57.63" y1="97.25" x2="57.63" y2="104.25"/><line class="cls-1" x1="48.4" y1="97.25" x2="48.4" y2="104.25"/><line class="cls-1" x1="39.17" y1="97.25" x2="39.17" y2="104.25"/><line class="cls-1" x1="29.94" y1="97.25" x2="29.94" y2="104.25"/><line class="cls-1" x1="20.71" y1="97.25" x2="20.71" y2="104.25"/><line class="cls-1" x1="11.48" y1="97.25" x2="11.48" y2="104.25"/></g></g></svg>