<svg xmlns="http://www.w3.org/2000/svg" viewBox="0 0 107.52 89.96"><defs><style>.cls-1{fill:#316eb6;}</style></defs><title>Ресурс 1</title><g id="Слой_2" data-name="Слой 2"><g id="Layer_1" data-name="Layer 1"><path class="cls-1" d="M107.52,90H0V13H107.52ZM3.89,86.08h99.75V16.84H3.89Z"/><rect class="cls-1" x="10.15" y="45.19" width="3.89" height="3.89"/><path class="cls-1" d="M14,41.59H10.15V38H14Zm0-7.19H10.15v-3.6H14Z"/><rect class="cls-1" x="10.15" y="23.32" width="3.89" height="3.89"/><path class="cls-1" d="M89.7,27.2H85.92V23.32H89.7Zm-7.57,0H78.35V23.32h3.78Zm-7.57,0H70.79V23.32h3.78ZM67,27.2H63.22V23.32H67Zm-7.57,0H55.65V23.32h3.78Zm-7.57,0H48.09V23.32h3.78Zm-7.57,0H40.52V23.32H44.3Zm-7.57,0H33V23.32h3.78Zm-7.57,0H25.39V23.32h3.78Zm-7.57,0H17.82V23.32h3.78Z"/><rect class="cls-1" x="93.48" y="23.32" width="3.89" height="3.89" transform="translate(70.05 120.66) rotate(-89.93)"/><path class="cls-1" d="M97.38,41.59H93.49V38h3.89Zm0-7.19H93.49v-3.6h3.89Z"/><rect class="cls-1" x="93.49" y="45.19" width="3.89" height="3.89"/><path class="cls-1" d="M89.7,49.08H85.92V45.2H89.7Zm-7.57,0H78.35V45.2h3.78Zm-7.57,0H70.78V45.2h3.78Zm-7.57,0H63.22V45.2H67Zm-7.57,0H55.65V45.2h3.78Zm-7.57,0H48.09V45.2h3.78Zm-7.57,0H40.52V45.2H44.3Zm-7.57,0H33V45.2h3.78Zm-7.57,0H25.39V45.2h3.78Zm-7.57,0H17.82V45.2H21.6Z"/><path class="cls-1" d="M107.52,16.84H0V0H107.52ZM3.89,13h99.75V3.89H3.89Z"/><rect class="cls-1" x="10.15" y="6.48" width="3.89" height="3.89"/><rect class="cls-1" x="17.92" y="6.48" width="3.89" height="3.89"/><rect class="cls-1" x="25.69" y="6.48" width="3.89" height="3.89"/><path class="cls-1" d="M10.15,53.62v26.2h26.2V53.62ZM32.46,75.93H14V57.5H32.46Z"/><path class="cls-1" d="M40.66,53.62v26.2h26.2V53.62ZM63,75.93H44.55V57.5H63Z"/><path class="cls-1" d="M71.18,53.62v26.2h26.2V53.62ZM93.49,75.93H75.07V57.5H93.49Z"/></g></g></svg>