<svg xmlns="http://www.w3.org/2000/svg" viewBox="0 0 111.84 85.93"><defs><style>.cls-1{fill:#176ecc;}</style></defs><title>Ресурс 1</title><g id="Слой_2" data-name="Слой 2"><g id="Layer_1" data-name="Layer 1"><polygon class="cls-1" points="111.84 82.15 69.68 82.15 69.68 78.26 107.95 78.26 107.95 17.38 3.89 17.38 3.89 78.26 42.16 78.26 42.16 82.15 0 82.15 0 13.49 111.84 13.49 111.84 82.15"/><rect class="cls-1" x="11.47" y="37.66" width="3.89" height="31.75"/><path class="cls-1" d="M92,17.38H19.86L39,0H72.86ZM29.91,13.49h52L71.36,3.89H40.48Z"/><path class="cls-1" d="M55.92,85.93A30.54,30.54,0,1,1,86.46,55.39,30.57,30.57,0,0,1,55.92,85.93Zm0-57.18A26.65,26.65,0,1,0,82.57,55.39,26.68,26.68,0,0,0,55.92,28.75Z"/><path class="cls-1" d="M55.92,77.63A22.24,22.24,0,1,1,78.16,55.39,22.26,22.26,0,0,1,55.92,77.63Zm0-40.59A18.35,18.35,0,1,0,74.27,55.39,18.37,18.37,0,0,0,55.92,37Z"/><path class="cls-1" d="M47.07,55.39H43.18A12.75,12.75,0,0,1,55.92,42.66v3.89A8.86,8.86,0,0,0,47.07,55.39Z"/><path class="cls-1" d="M103.73,34.49H90.85V21.6h12.88Zm-9-3.89h5.11V25.49H94.73Z"/><rect class="cls-1" x="6.67" y="6.75" width="13.49" height="3.89"/></g></g></svg>