<svg xmlns="http://www.w3.org/2000/svg" viewBox="0 0 153.62 108.15"><defs><style>.cls-1{fill:none;stroke:#316eb6;stroke-miterlimit:10;stroke-width:4.5px;}.cls-2{fill:#316eb6;}</style></defs><title>Ресурс 1</title><g id="Слой_2" data-name="Слой 2"><g id="Layer_1" data-name="Layer 1"><polyline class="cls-1" points="93.55 95.91 93.55 105.9 67.33 105.9 67.33 95.91"/><line class="cls-1" x1="58.94" y1="105.9" x2="101.94" y2="105.9"/><path class="cls-1" d="M135.32,48.61V6.12a3.88,3.88,0,0,0-3.88-3.87h-102a3.86,3.86,0,0,0-3.87,3.87V39.54"/><polyline class="cls-1" points="119.26 65.38 109.98 65.38 109.98 39.01 124.07 39.01 124.07 48.61"/><path class="cls-2" d="M97.43,41.26V63.13H87.85V41.26h9.58m4.5-4.5H83.35V67.63h18.58V36.76Z"/><path class="cls-2" d="M73,41.26V63.13H63.46V41.26H73m4.5-4.5H59V67.63H77.54V36.76Z"/><path class="cls-2" d="M121.82,15.79V26.2H39.07V15.79h82.75m4.5-4.5H34.57V30.7h91.75V11.29Z"/><polyline class="cls-1" points="50.65 89.5 119.26 89.5 119.26 76.6 50.65 76.6"/><line class="cls-1" x1="129.58" y1="97.7" x2="141.04" y2="97.7"/><rect class="cls-1" x="119.26" y="48.61" width="32.11" height="57.29" rx="4.09" ry="4.09"/><path class="cls-2" d="M139.87,60.11v8.64h-9.11V60.11h9.11m4.5-4.5H126.26V73.25h18.11V55.61Z"/><line class="cls-1" x1="126.26" y1="89.5" x2="144.37" y2="89.5"/><line class="cls-1" x1="144.37" y1="80.25" x2="126.26" y2="80.25"/><line class="cls-1" x1="18.63" y1="97.7" x2="34.27" y2="97.7"/><path class="cls-1" d="M44.49,39H8.41a6.19,6.19,0,0,0-6.16,6.17V99.75a6.18,6.18,0,0,0,6.16,6.16H44.49a6.17,6.17,0,0,0,6.16-6.16V45.17A6.18,6.18,0,0,0,44.49,39Z"/><path class="cls-2" d="M38.15,71.13V87.25h-5.2V71.13h5.2m4.5-4.5H28.45V91.75h14.2V66.63Z"/><path class="cls-2" d="M19.95,71.13V87.25h-5.2V71.13h5.2m4.5-4.5H10.25V91.75h14.2V66.63Z"/><path class="cls-2" d="M38.15,51.51v6.63H14.75V51.51h23.4m4.5-4.5H10.25V62.63h32.4V47Z"/></g></g></svg>