<svg xmlns="http://www.w3.org/2000/svg" viewBox="0 0 64 57"><defs><style>.cls-1{fill:none;stroke:#176ecc;stroke-linejoin:round;stroke-width:2px;}</style></defs><title>Ресурс 1</title><g id="Слой_2" data-name="Слой 2"><g id="Layer_1" data-name="Layer 1"><path class="cls-1" d="M20,36H9A8,8,0,0,1,9,20h.27a8,8,0,0,1,10.25-9.61,13,13,0,0,1,25,0A8,8,0,0,1,54.73,20H55a8,8,0,0,1,0,16H44"/><line class="cls-1" x1="44" y1="40" x2="46" y2="40"/><line class="cls-1" x1="48" y1="40" x2="50" y2="40"/><line class="cls-1" x1="52" y1="40" x2="54" y2="40"/><line class="cls-1" x1="10" y1="40" x2="12" y2="40"/><line class="cls-1" x1="14" y1="40" x2="16" y2="40"/><line class="cls-1" x1="18" y1="40" x2="20" y2="40"/><circle class="cls-1" cx="32" cy="23" r="13"/><polyline class="cls-1" points="37 35 37 40 27 40 27 35"/><path class="cls-1" d="M29,40V53a3,3,0,0,0,6,0V40"/><circle class="cls-1" cx="32" cy="23" r="9"/><path class="cls-1" d="M27,23a5,5,0,0,1,5-5"/></g></g></svg>