<svg xmlns="http://www.w3.org/2000/svg" viewBox="0 0 107.52 98.6"><defs><style>.cls-1{fill:#316eb6;}</style></defs><title>Ресурс 1</title><g id="Слой_2" data-name="Слой 2"><g id="Layer_1" data-name="Layer 1"><path class="cls-1" d="M107.52,98.6H0V13H107.52ZM3.89,94.71h99.75V16.84H3.89Z"/><path class="cls-1" d="M107.52,16.84H0V0H107.52ZM3.89,13h99.75V3.89H3.89Z"/><rect class="cls-1" x="8.85" y="6.48" width="3.89" height="3.89"/><rect class="cls-1" x="16.63" y="6.48" width="3.89" height="3.89"/><rect class="cls-1" x="24.4" y="6.48" width="3.89" height="3.89"/><path class="cls-1" d="M80.05,71.13V89.75H98.67V71.13ZM94.78,85.86H83.94V75H94.78Z"/><path class="cls-1" d="M80.05,46.47V65.08H98.67V46.47ZM94.78,61.2H83.94V50.35H94.78Z"/><path class="cls-1" d="M80.05,21.81V40.42H98.67V21.81ZM94.78,36.54H83.94V25.69H94.78Z"/><path class="cls-1" d="M8.85,21.81V65.08H68V21.81ZM64.08,61.2H12.74V25.69H64.08Z"/><polygon class="cls-1" points="52.57 37.18 47.52 50.16 31.79 50.16 25.51 33.98 19.35 33.98 19.35 30.06 28.19 30.06 34.48 46.23 44.84 46.23 48.35 37.18 52.57 37.18"/><rect class="cls-1" x="35.75" y="39.06" width="7.83" height="3.92"/><circle class="cls-1" cx="33.92" cy="54.48" r="2.35"/><circle class="cls-1" cx="45.39" cy="54.48" r="2.35"/><rect class="cls-1" x="8.85" y="85.64" width="59.11" height="3.89"/><rect class="cls-1" x="8.85" y="78.49" width="59.11" height="3.89"/><rect class="cls-1" x="8.85" y="71.35" width="29.56" height="3.89"/></g></g></svg>