<svg xmlns="http://www.w3.org/2000/svg" viewBox="0 0 111.84 90.12"><defs><style>.cls-1{fill:#176ecc;}</style></defs><title>Ресурс 1</title><g id="Слой_2" data-name="Слой 2"><g id="Layer_1" data-name="Layer 1"><path class="cls-1" d="M11.46,90.12a2.64,2.64,0,0,1-2.64-2.64V79.93A8.92,8.92,0,0,1,0,71V38A8.92,8.92,0,0,1,8.92,29H23.56v3.89H8.92a5,5,0,0,0-5,5V71a5,5,0,0,0,5,5h3.78v8.42L21.13,76H64.74a5,5,0,0,0,5-5V60.1h3.89V71a8.92,8.92,0,0,1-8.93,8.92h-42l-9.41,9.41A2.65,2.65,0,0,1,11.46,90.12Z"/><path class="cls-1" d="M98.12,74.64a2.83,2.83,0,0,1-2-.82L84.36,62H32.2A10.58,10.58,0,0,1,21.62,51.46V10.58A10.58,10.58,0,0,1,32.2,0h69.06a10.58,10.58,0,0,1,10.58,10.58V51.46A10.58,10.58,0,0,1,101.26,62h-.33v9.79a2.81,2.81,0,0,1-2.81,2.81ZM32.2,3.89a6.69,6.69,0,0,0-6.69,6.69V51.46a6.69,6.69,0,0,0,6.69,6.69H86L97,69.22V58.15h4.22A6.69,6.69,0,0,0,108,51.46V10.58a6.69,6.69,0,0,0-6.69-6.69Z"/><rect class="cls-1" x="57.01" y="29.08" width="3.89" height="3.89"/><rect class="cls-1" x="64.79" y="29.08" width="3.89" height="3.89"/><rect class="cls-1" x="72.56" y="29.08" width="3.89" height="3.89"/><path class="cls-1" d="M101.48,51.67H32V10.36h69.49ZM35.87,47.79H97.59V14.25H35.87Z"/></g></g></svg>