<svg xmlns="http://www.w3.org/2000/svg" viewBox="0 0 154.5 145.32"><defs><style>.cls-1{fill:none;stroke:#316eb6;stroke-miterlimit:10;stroke-width:4.5px;}.cls-2{fill:#316eb6;}</style></defs><title>Ресурс 1</title><g id="Слой_2" data-name="Слой 2"><g id="Layer_1" data-name="Layer 1"><circle class="cls-1" cx="123.94" cy="114.76" r="28.31"/><polyline class="cls-1" points="115.49 122.83 107.42 114.76 115.49 106.7"/><polyline class="cls-1" points="132.39 122.83 140.45 114.76 132.39 106.7"/><line class="cls-1" x1="127.62" y1="101.78" x2="120.26" y2="127.75"/><line class="cls-1" x1="60.71" y1="53.25" x2="74.19" y2="53.25"/><line class="cls-1" x1="74.19" y1="70.4" x2="88.69" y2="70.4"/><line class="cls-1" x1="74.19" y1="78.97" x2="88.69" y2="78.97"/><line class="cls-1" x1="74.19" y1="104.69" x2="88.69" y2="104.69"/><line class="cls-1" x1="74.19" y1="113.26" x2="88.69" y2="113.26"/><line class="cls-1" x1="60.71" y1="61.82" x2="88.69" y2="61.82"/><line class="cls-1" x1="60.71" y1="87.54" x2="74.19" y2="87.54"/><line class="cls-1" x1="60.71" y1="96.11" x2="88.69" y2="96.11"/><line class="cls-1" x1="94.36" y1="70.4" x2="108.87" y2="70.4"/><line class="cls-1" x1="94.36" y1="78.97" x2="122.35" y2="78.97"/><line class="cls-1" x1="94.36" y1="61.82" x2="108.87" y2="61.82"/><rect class="cls-1" x="49.03" y="25.91" width="85.01" height="15"/><rect class="cls-2" x="60.71" y="31.17" width="4.5" height="4.5"/><rect class="cls-2" x="69.71" y="31.17" width="4.5" height="4.5"/><rect class="cls-2" x="78.71" y="31.17" width="4.5" height="4.5"/><polyline class="cls-1" points="134.04 81.33 134.04 40.91 49.02 40.91 49.02 125.59 88.69 125.59"/><circle class="cls-1" cx="24.56" cy="131.53" r="6.61"/><line class="cls-1" x1="38.69" y1="124.92" x2="38.69" y2="138.13"/><circle class="cls-1" cx="117.4" cy="8.86" r="6.61"/><line class="cls-1" x1="103.27" y1="2.25" x2="103.27" y2="15.46"/><line class="cls-1" x1="95.74" y1="2.25" x2="95.74" y2="15.46"/><path class="cls-1" d="M32.45,65.24A4.72,4.72,0,0,1,37.17,70V88.83a4.72,4.72,0,0,1-4.72,4.72"/><path class="cls-1" d="M7,93.55a4.72,4.72,0,0,1-4.72-4.72V70A4.71,4.71,0,0,1,7,65.24"/><rect class="cls-2" x="8.89" y="77.15" width="4.5" height="4.5"/><rect class="cls-2" x="16.99" y="77.15" width="4.5" height="4.5"/><rect class="cls-2" x="25.08" y="77.15" width="4.5" height="4.5"/></g></g></svg>