<svg xmlns="http://www.w3.org/2000/svg" viewBox="0 0 99.89 107.52"><defs><style>.cls-1{fill:#176ecc;}</style></defs><title>Ресурс 1</title><g id="Слой_2" data-name="Слой 2"><g id="Layer_1" data-name="Layer 1"><rect class="cls-1" x="12.29" y="17.29" width="28.52" height="3.89"/><rect class="cls-1" x="12.29" y="25.92" width="57.03" height="3.89"/><rect class="cls-1" x="12.29" y="34.56" width="57.03" height="3.89"/><rect class="cls-1" x="12.29" y="43.2" width="50.09" height="3.89"/><rect class="cls-1" x="12.29" y="91.69" width="22.11" height="3.89"/><polygon class="cls-1" points="81.61 107.52 0 107.52 0 0 63.19 0 81.61 18.43 81.61 39.63 77.73 39.63 77.73 20.04 61.57 3.89 3.89 3.89 3.89 103.64 77.73 103.64 77.73 69.92 81.61 69.92 81.61 107.52"/><polygon class="cls-1" points="79.67 21.17 60.44 21.17 60.44 1.94 64.32 1.94 64.32 17.29 79.67 17.29 79.67 21.17"/><path class="cls-1" d="M56,95.58A1.94,1.94,0,0,1,54.58,95L39.43,79.87a1.94,1.94,0,0,1,0-2.75L78.29,38.25a2,2,0,0,1,2.75,0L96.19,53.4a1.94,1.94,0,0,1,0,2.75L57.33,95A1.94,1.94,0,0,1,56,95.58ZM43.55,78.49,56,90.89,92.07,54.77l-12.4-12.4Z"/><rect class="cls-1" x="40.33" y="64.69" width="54.96" height="3.89" transform="translate(-27.25 67.47) rotate(-45)"/><path class="cls-1" d="M94.82,57.52,76.92,39.63l1.38-1.37a12.65,12.65,0,0,1,17.89,17.9ZM82.57,39.78,94.66,51.87A8.77,8.77,0,0,0,82.57,39.78Z"/><polygon class="cls-1" points="55.95 95.58 38.86 95.58 38.86 78.49 42.75 78.49 42.75 91.69 55.95 91.69 55.95 95.58"/></g></g></svg>