<svg xmlns="http://www.w3.org/2000/svg" viewBox="0 0 60 64"><defs><style>.cls-1,.cls-2{fill:none;stroke:#176ecc;stroke-width:2px;}.cls-1{stroke-linejoin:round;}.cls-2{stroke-miterlimit:10;}</style></defs><title>Ресурс 2</title><g id="Слой_2" data-name="Слой 2"><g id="Layer_1" data-name="Layer 1"><path class="cls-1" d="M36,31h3A12,12,0,1,0,39,7H32"/><path class="cls-1" d="M41,46a5,5,0,0,0-5-5H22a5,5,0,1,1,0-10h2"/><circle class="cls-2" cx="30" cy="7" r="6"/><circle class="cls-2" cx="30" cy="7" r="2"/><path class="cls-2" d="M39.41,17.59A2,2,0,0,0,38,17H22a2,2,0,0,0,0,4H38a2,2,0,0,0,1.41-3.41Z"/><line class="cls-2" x1="27" y1="17" x2="27" y2="12"/><line class="cls-2" x1="33" y1="17" x2="33" y2="12"/><path class="cls-1" d="M27,21V47A11,11,0,0,1,5,47H9L1,39v8A16,16,0,0,0,17,63a16.54,16.54,0,0,0,10-3l3,3,3-3a16.54,16.54,0,0,0,10,3A16,16,0,0,0,59,47V39l-8,8h4a11,11,0,0,1-22,0V21"/></g></g></svg>