<svg xmlns="http://www.w3.org/2000/svg" viewBox="0 0 64 64"><defs><style>.cls-1{fill:none;stroke:#176ecc;stroke-linejoin:round;stroke-width:2px;}</style></defs><title>Ресурс 1</title><g id="Слой_2" data-name="Слой 2"><g id="Layer_1" data-name="Layer 1"><path class="cls-1" d="M37.5,9.5"/><line class="cls-1" x1="33" y1="32" x2="35" y2="32"/><line class="cls-1" x1="37" y1="32" x2="39" y2="32"/><line class="cls-1" x1="41" y1="32" x2="43" y2="32"/><line class="cls-1" x1="45" y1="32" x2="53" y2="32"/><line class="cls-1" x1="23" y1="32" x2="31" y2="32"/><circle class="cls-1" cx="18" cy="32" r="5"/><line class="cls-1" x1="17" y1="32" x2="19" y2="32"/><circle class="cls-1" cx="58" cy="32" r="5"/><line class="cls-1" x1="57" y1="32" x2="59" y2="32"/><circle class="cls-1" cx="44" cy="6" r="5"/><line class="cls-1" x1="43" y1="6" x2="45" y2="6"/><circle class="cls-1" cx="44" cy="58" r="5"/><line class="cls-1" x1="43" y1="58" x2="45" y2="58"/><path class="cls-1" d="M34,38A16.58,16.58,0,0,1,18,49a17,17,0,0,1,0-34A16.58,16.58,0,0,1,34,26"/><path class="cls-1" d="M41,9"/><line class="cls-1" x1="30" y1="44" x2="21" y2="35"/><line class="cls-1" x1="41" y1="55" x2="33" y2="47"/><line class="cls-1" x1="21" y1="29" x2="30" y2="20"/><line class="cls-1" x1="33" y1="17" x2="41" y2="9"/><path class="cls-1" d="M18,43a11,11,0,0,1,0-22"/></g></g></svg>