<svg xmlns="http://www.w3.org/2000/svg" viewBox="0 0 64 61"><defs><style>.cls-1{fill:none;stroke:#176ecc;stroke-linejoin:round;stroke-width:2px;}</style></defs><title>Ресурс 1</title><g id="Слой_2" data-name="Слой 2"><g id="Layer_1" data-name="Layer 1"><path class="cls-1" d="M23,14a9,9,0,0,1,9-9"/><path class="cls-1" d="M18,36H9A8,8,0,0,1,9,20h.27a8,8,0,0,1,10.25-9.6,13,13,0,0,1,25,0A8,8,0,0,1,54.73,20H55a8,8,0,0,1,0,16H46"/><line class="cls-1" x1="35" y1="35" x2="35" y2="37"/><line class="cls-1" x1="35" y1="39" x2="35" y2="41"/><line class="cls-1" x1="35" y1="43" x2="35" y2="45"/><line class="cls-1" x1="35" y1="47" x2="35" y2="61"/><line class="cls-1" x1="29" y1="61" x2="29" y2="59"/><line class="cls-1" x1="29" y1="57" x2="29" y2="55"/><line class="cls-1" x1="29" y1="53" x2="29" y2="51"/><line class="cls-1" x1="29" y1="49" x2="29" y2="35"/><path class="cls-1" d="M41,29V44a4,4,0,0,0,4,4h2"/><circle class="cls-1" cx="51" cy="48" r="4"/><line class="cls-1" x1="58" y1="48" x2="55" y2="48"/><line class="cls-1" x1="50" y1="48" x2="52" y2="48"/><path class="cls-1" d="M23,29V44a4,4,0,0,1-4,4H17"/><circle class="cls-1" cx="13" cy="48" r="4"/><line class="cls-1" x1="6" y1="48" x2="9" y2="48"/><line class="cls-1" x1="14" y1="48" x2="12" y2="48"/></g></g></svg>