<svg xmlns="http://www.w3.org/2000/svg" viewBox="0 0 64 63"><defs><style>.cls-1{fill:none;stroke:#176ecc;stroke-miterlimit:10;stroke-width:2px;}</style></defs><title>Ресурс 1</title><g id="Слой_2" data-name="Слой 2"><g id="Layer_1" data-name="Layer 1"><path class="cls-1" d="M58,56V24a2,2,0,0,0-2-2H8a2,2,0,0,0-2,2V56"/><path class="cls-1" d="M40,56l-2,2H26l-2-2H1v2a4,4,0,0,0,4,4H59a4,4,0,0,0,4-4V56Z"/><line class="cls-1" x1="13" y1="48" x2="15" y2="48"/><line class="cls-1" x1="17" y1="48" x2="19" y2="48"/><line class="cls-1" x1="21" y1="48" x2="23" y2="48"/><line class="cls-1" x1="25" y1="48" x2="27" y2="48"/><line class="cls-1" x1="29" y1="48" x2="31" y2="48"/><line class="cls-1" x1="33" y1="48" x2="35" y2="48"/><rect class="cls-1" x="10" y="44" width="44" height="8"/><line class="cls-1" x1="10" y1="41" x2="10" y2="35"/><line class="cls-1" x1="14" y1="41" x2="14" y2="38"/><line class="cls-1" x1="18" y1="41" x2="18" y2="32"/><line class="cls-1" x1="22" y1="41" x2="22" y2="34"/><line class="cls-1" x1="26" y1="41" x2="26" y2="31"/><line class="cls-1" x1="30" y1="41" x2="30" y2="28"/><line class="cls-1" x1="34" y1="41" x2="34" y2="30"/><line class="cls-1" x1="38" y1="41" x2="38" y2="35"/><line class="cls-1" x1="42" y1="41" x2="42" y2="29"/><line class="cls-1" x1="46" y1="41" x2="46" y2="33"/><line class="cls-1" x1="50" y1="41" x2="50" y2="25"/><line class="cls-1" x1="54" y1="41" x2="54" y2="27"/><line class="cls-1" x1="9" y1="30" x2="15" y2="30"/><line class="cls-1" x1="9" y1="26" x2="23" y2="26"/><path class="cls-1" d="M19,19a13,13,0,1,1,26,0"/><path class="cls-1" d="M25,19a7,7,0,0,1,14,0"/><polyline class="cls-1" points="28 7 30 1 34 1 36 7"/><polyline class="cls-1" points="20.68 13.34 18 7 20 5 26.34 7.69"/><polyline class="cls-1" points="14 19 14 17 20 15"/><polyline class="cls-1" points="44 15 50 17 50 19"/><polyline class="cls-1" points="37.66 7.69 44 5 46 7 43.31 13.34"/></g></g></svg>