<svg xmlns="http://www.w3.org/2000/svg" viewBox="0 0 564.43 68.22"><defs><style>.cls-1{fill:#fff;}.cls-2{fill:#fff;}.cls-3{fill:#fff;}</style></defs><title>Ресурс 1</title><g id="Слой_2" data-name="Слой 2"><g id="Слой_1-2" data-name="Слой 1"><path class="cls-1" d="M47.61,43.38A25,25,0,0,1,22.32,68.22c-7.47,0-14.58-2.43-19.08-6.39v6H0V0H3.24V24.66c4.68-3.78,11.25-6.21,19.08-6.21A25,25,0,0,1,47.61,43.38Zm-3.24,0A22,22,0,0,0,22,21.6c-7.92,0-14.49,2.61-18.81,6.84V58c4.5,4.41,11,7,18.81,7C34.38,65.07,44.37,55.44,44.37,43.38Z"/><path class="cls-1" d="M100.35,44.73H55.71A21.38,21.38,0,0,0,77.22,65.07c7.29,0,14.31-2.7,18.63-8.19l2.52,2c-4.5,5.67-12.24,9.36-21.33,9.36-14.58,0-24.66-11.16-24.66-24.84S62.46,18.45,77,18.45c14.4,0,23.31,10.44,23.31,25.2ZM55.71,41.85H97.2C96.57,30,89.1,21.51,77,21.51S56.25,30.42,55.71,41.85Z"/><rect class="cls-2" x="106.47" y="0.36" width="12.6" height="67.86"/><polygon class="cls-2" points="262.3 38.43 280.12 19.35 265.45 19.35 244.57 40.32 244.57 0.36 232.06 0.36 232.06 68.22 244.57 68.22 244.57 57.33 254.02 48.24 266.53 68.22 280.38 68.22 262.3 38.43"/><path class="cls-2" d="M150.93,33.72a9,9,0,0,0-2.66.4,4.5,4.5,0,1,1-5.94,5.94,9,9,0,1,0,8.6-6.34Z"/><path class="cls-2" d="M199.5,17.23a26.52,26.52,0,0,0-24.06,15.6,26.52,26.52,0,0,0-24.06-15.6h-27v25.5c0,.17,0,.33,0,.5.28,13.86,12.06,25,26.55,25a26.54,26.54,0,0,0,24.5-15.61,26.54,26.54,0,0,0,24.5,15.61c14.49,0,26.27-11.14,26.55-25,0-.17,0-.33,0-.5V17.22h-27Zm-48.56,41.5a16.06,16.06,0,0,1-16.12-15.51c0-.17,0-.33,0-.5a16.11,16.11,0,0,1,16.15-16l.44,0a16,16,0,1,1-.44,32Zm65.15-16c0,.17,0,.33,0,.5A16.17,16.17,0,1,1,199.5,26.73l.44,0A16.11,16.11,0,0,1,216.08,42.72Z"/><path class="cls-2" d="M197.27,34.12a4.5,4.5,0,1,1-5.94,5.94,9,9,0,1,0,5.94-5.94Z"/><path class="cls-3" d="M355.21,27.23a3.73,3.73,0,0,0,1.56-3.12,4.63,4.63,0,0,0-4.59-4.68h-9.3V40.58h11.64c4.17,0,6.39-3.18,6.39-6.69A6.62,6.62,0,0,0,355.21,27.23Zm-8.16-4.08h3.54c1.5,0,2.34.81,2.34,1.83a1.81,1.81,0,0,1-2,1.83h-3.87Zm5.13,13.71h-5.1V30h5.13c2.91,0,4.17,1.74,4.17,3.45C356.38,35.42,355.15,36.86,352.18,36.86Z"/><path class="cls-3" d="M378.46,31c0,4-1.77,5.88-5.19,5.88S368.14,35,368.14,31V19.43h-4.2V32.09c0,4.89,3.21,8.73,9.33,8.73s9.39-3.87,9.39-8.73V19.43h-4.2Z"/><rect class="cls-3" x="386.92" y="19.43" width="4.32" height="21.15"/><polygon class="cls-3" points="399.97 19.43 395.68 19.43 395.68 40.58 410.86 40.58 410.86 36.98 399.97 36.98 399.97 19.43"/><path class="cls-3" d="M422.29,19.43h-8.37V40.58H423c5.55,0,10-5,10-10.56A10.62,10.62,0,0,0,422.29,19.43Zm.33,17.22h-4.53V23.36h4.2A6.56,6.56,0,0,1,428.71,30C428.71,33.56,426,36.65,422.62,36.65Z"/><polygon class="cls-3" points="459.79 19.43 454.45 28.76 449.05 19.43 444.16 19.43 452.26 33.41 452.26 40.58 456.58 40.58 456.58 33.41 464.71 19.43 459.79 19.43"/><path class="cls-3" d="M475.54,19.22A11,11,0,0,0,464.29,30a11.26,11.26,0,0,0,22.5,0A11,11,0,0,0,475.54,19.22Zm0,17.58A6.78,6.78,0,1,1,482.41,30,6.8,6.8,0,0,1,475.54,36.8Z"/><path class="cls-3" d="M504.7,31c0,4-1.77,5.88-5.19,5.88S494.38,35,494.38,31V19.43h-4.2V32.09c0,4.89,3.21,8.73,9.33,8.73s9.39-3.87,9.39-8.73V19.43h-4.2Z"/><path class="cls-3" d="M526.39,34.28c2.79-1.2,4.29-3.6,4.29-7.23,0-4-2.1-7.62-8.28-7.62h-9.33V40.58h4.29V35.15h3.93a7,7,0,0,0,.81,0l4.08,5.46h5.13Zm-5.25-2.67h-3.78V23.15h4.35c3.33,0,4.47,2,4.47,4.23C526.18,29.87,524.56,31.61,521.14,31.61Z"/><polygon class="cls-3" points="357.58 60.12 344.98 46.8 342.88 46.8 342.88 67.95 347.17 67.95 347.17 54.63 359.8 67.95 361.9 67.95 361.9 46.8 357.58 46.8 357.58 60.12"/><polygon class="cls-3" points="370.45 59.49 380.02 59.49 380.02 55.89 370.45 55.89 370.45 50.52 381.88 50.52 381.88 46.8 366.28 46.8 366.28 67.95 382.51 67.95 382.51 64.23 370.45 64.23 370.45 59.49"/><polygon class="cls-3" points="404.62 46.8 399.85 46.8 394.63 54 389.44 46.8 384.64 46.8 391.87 57.27 384.43 67.95 389.32 67.95 394.63 60.57 399.94 67.95 404.83 67.95 397.42 57.27 404.62 46.8"/><polygon class="cls-3" points="406.45 50.52 413.17 50.52 413.17 67.95 417.49 67.95 417.49 50.52 424.24 50.52 424.24 46.8 406.45 46.8 406.45 50.52"/><path class="cls-3" d="M449.38,54.6a3.73,3.73,0,0,0,1.56-3.12,4.63,4.63,0,0,0-4.59-4.68h-9.3V67.95h11.64c4.17,0,6.39-3.18,6.39-6.69A6.62,6.62,0,0,0,449.38,54.6Zm-8.16-4.08h3.54c1.5,0,2.34.81,2.34,1.83a1.81,1.81,0,0,1-2,1.83h-3.87Zm5.13,13.71h-5.1V57.36h5.13c2.91,0,4.17,1.74,4.17,3.45C450.55,62.79,449.32,64.23,446.35,64.23Z"/><rect class="cls-3" x="458.38" y="46.8" width="4.32" height="21.15"/><path class="cls-3" d="M477.07,61h5.37v2a8.8,8.8,0,0,1-4.92,1.44,6.88,6.88,0,0,1,0-13.77,8.6,8.6,0,0,1,5.76,2l2.7-3a12.3,12.3,0,0,0-8.46-3,10.81,10.81,0,1,0,0,21.6,14.67,14.67,0,0,0,9.21-3.09V57.36h-9.66Z"/><path class="cls-3" d="M508.48,55.41c-3.18-.72-4.68-1.35-4.68-2.85,0-1.32,1.2-2.28,3.36-2.28a18.61,18.61,0,0,1,6.45,1.41l1.74-3.42a20.54,20.54,0,0,0-8.1-1.71c-4.83,0-7.8,2.64-7.8,6.36,0,4.17,3.51,5.4,7.86,6.39,3.09.72,4.5,1.35,4.5,2.79s-1.38,2.4-3.69,2.4a15,15,0,0,1-7.38-1.62l-1.56,3.33a16.33,16.33,0,0,0,8.79,2c4.92,0,8.19-2.4,8.19-6.48C516.16,57.87,513,56.43,508.48,55.41Z"/><rect class="cls-3" x="519.64" y="46.8" width="4.32" height="21.15"/><polygon class="cls-3" points="527.26 50.52 533.98 50.52 533.98 67.95 538.3 67.95 538.3 50.52 545.05 50.52 545.05 46.8 527.26 46.8 527.26 50.52"/><polygon class="cls-3" points="552.37 64.23 552.37 59.49 561.94 59.49 561.94 55.89 552.37 55.89 552.37 50.52 563.8 50.52 563.8 46.8 548.2 46.8 548.2 67.95 564.43 67.95 564.43 64.23 552.37 64.23"/><rect class="cls-3" x="310.87" y="19.22" width="1.99" height="49"/></g></g></svg>