<svg xmlns="http://www.w3.org/2000/svg" viewBox="0 0 112.27 124.8"><defs><style>.a{fill:#176ecc;}</style></defs><title>Ресурс 3</title><path class="a" d="M16.59,101.94A55.94,55.94,0,0,1,49.45,6.87l.46,3.86A52,52,0,0,0,19.34,99.2Z"/><path class="a" d="M56.14,16.84a8.42,8.42,0,1,1,8.42-8.42A8.43,8.43,0,0,1,56.14,16.84Zm0-13a4.53,4.53,0,1,0,4.53,4.53A4.54,4.54,0,0,0,56.14,3.89Z"/><path class="a" d="M62.83,117.92l-.46-3.86A52,52,0,0,0,92.93,25.6l2.75-2.75a55.94,55.94,0,0,1-32.86,95.07Z"/><path class="a" d="M56.14,124.8a8.42,8.42,0,1,1,8.42-8.42A8.43,8.43,0,0,1,56.14,124.8Zm0-13a4.53,4.53,0,1,0,4.53,4.53A4.54,4.54,0,0,0,56.14,111.84Z"/><rect class="a" y="6.48" width="4.32" height="3.89"/><rect class="a" x="107.96" y="6.48" width="4.32" height="3.89"/><rect class="a" y="114.43" width="4.32" height="3.89"/><rect class="a" x="107.96" y="114.43" width="4.32" height="3.89"/><path class="a" d="M56.14,104.07A41.67,41.67,0,1,1,97.81,62.4H93.92a37.78,37.78,0,1,0-37.78,37.78Z"/><path class="a" d="M97.76,64.43l-3.88-.18q0-.92,0-1.85h3.89C97.81,63.08,97.79,63.76,97.76,64.43Z"/><path class="a" d="M62.27,103.62l-.57-3.84c1.22-.18,2.44-.42,3.64-.72l.94,3.77C65,103.15,63.62,103.42,62.27,103.62Zm7.92-2L68.89,98c1.15-.41,2.31-.89,3.42-1.42L74,100.07C72.74,100.65,71.47,101.18,70.2,101.64Zm7.38-3.5-2-3.33c1.05-.63,2.09-1.33,3.08-2.06L81,95.86C79.88,96.67,78.74,97.44,77.58,98.14Zm6.55-4.87-2.61-2.88c.91-.83,1.79-1.71,2.62-2.62L87,90.38C86.11,91.38,85.14,92.35,84.13,93.27Zm5.48-6L86.49,84.9c.73-1,1.43-2,2.06-3.08l3.33,2C91.19,85,90.42,86.13,89.61,87.22Zm4.2-7L90.3,78.55c.53-1.11,1-2.26,1.42-3.42l3.66,1.31C94.92,77.72,94.4,79,93.82,80.21Zm2.75-7.7-3.77-.94c.3-1.19.54-2.42.72-3.64l3.84.57C97.16,69.85,96.9,71.2,96.57,72.52Z"/><path class="a" d="M56.14,104.07v-3.89q.93,0,1.85,0l.18,3.88C57.5,104.05,56.82,104.07,56.14,104.07Z"/><path class="a" d="M56.13,94.71a32.31,32.31,0,1,1,0-64.62h1.94v31.5L80.35,83.87,79,85.24A32.09,32.09,0,0,1,56.13,94.71ZM54.19,34A28.42,28.42,0,1,0,74.8,83.82L54.19,63.2Z"/><rect class="a" x="31.31" y="60.45" width="3.89" height="3.89"/><rect class="a" x="39.08" y="60.45" width="3.89" height="3.89"/><rect class="a" x="46.85" y="60.45" width="3.89" height="3.89"/><path class="a" d="M88.45,64.34H63.9V60.45H84.5A28.43,28.43,0,0,0,63.41,34.91l1-3.76A32.32,32.32,0,0,1,88.45,62.4Z"/></svg>