<svg xmlns="http://www.w3.org/2000/svg" viewBox="0 0 64 64"><defs><style>.a,.b{fill:none;stroke:#166bcc;stroke-width:2px;}.a{stroke-miterlimit:10;}.b{stroke-linejoin:round;}</style></defs><title>Ресурс 1</title><polyline class="a" points="18 0 18 4 20 6 20 8"/><polyline class="a" points="22 0 22 3 24 5 24 8"/><polyline class="a" points="26 0 26 2 28 4 28 8"/><polyline class="a" points="46 0 46 4 44 6 44 8"/><polyline class="a" points="42 0 42 3 40 5 40 8"/><polyline class="a" points="38 0 38 2 36 4 36 8"/><line class="a" x1="32" x2="32" y2="8"/><polyline class="a" points="46 64 46 60 44 58 44 56"/><polyline class="a" points="42 64 42 61 40 59 40 56"/><polyline class="a" points="38 64 38 62 36 60 36 56"/><polyline class="a" points="18 64 18 60 20 58 20 56"/><polyline class="a" points="22 64 22 61 24 59 24 56"/><polyline class="a" points="26 64 26 62 28 60 28 56"/><line class="a" x1="32" y1="64" x2="32" y2="56"/><polyline class="a" points="0 46 4 46 6 44 8 44"/><polyline class="a" points="0 42 3 42 5 40 8 40"/><polyline class="a" points="0 38 2 38 4 36 8 36"/><polyline class="a" points="0 18 4 18 6 20 8 20"/><polyline class="a" points="0 22 3 22 5 24 8 24"/><polyline class="a" points="0 26 2 26 4 28 8 28"/><line class="a" y1="32" x2="8" y2="32"/><polyline class="a" points="64 18 60 18 58 20 56 20"/><polyline class="a" points="64 22 61 22 59 24 56 24"/><polyline class="a" points="64 26 62 26 60 28 56 28"/><polyline class="a" points="64 46 60 46 58 44 56 44"/><polyline class="a" points="64 42 61 42 59 40 56 40"/><polyline class="a" points="64 38 62 38 60 36 56 36"/><line class="a" x1="64" y1="32" x2="56" y2="32"/><line class="b" x1="23" y1="24" x2="25" y2="24"/><line class="b" x1="27" y1="24" x2="29" y2="24"/><line class="b" x1="31" y1="24" x2="33" y2="24"/><line class="b" x1="35" y1="24" x2="37" y2="24"/><line class="b" x1="39" y1="24" x2="41" y2="24"/><line class="b" x1="23" y1="28" x2="25" y2="28"/><line class="b" x1="27" y1="28" x2="29" y2="28"/><line class="b" x1="31" y1="28" x2="33" y2="28"/><line class="b" x1="35" y1="28" x2="37" y2="28"/><line class="b" x1="39" y1="28" x2="41" y2="28"/><line class="b" x1="23" y1="32" x2="25" y2="32"/><line class="b" x1="27" y1="32" x2="29" y2="32"/><line class="b" x1="31" y1="32" x2="33" y2="32"/><line class="b" x1="35" y1="32" x2="37" y2="32"/><line class="b" x1="39" y1="32" x2="41" y2="32"/><line class="b" x1="23" y1="36" x2="25" y2="36"/><line class="b" x1="27" y1="36" x2="29" y2="36"/><line class="b" x1="31" y1="36" x2="33" y2="36"/><line class="b" x1="35" y1="36" x2="37" y2="36"/><line class="b" x1="39" y1="36" x2="41" y2="36"/><line class="b" x1="23" y1="40" x2="25" y2="40"/><line class="b" x1="27" y1="40" x2="29" y2="40"/><line class="b" x1="31" y1="40" x2="33" y2="40"/><line class="b" x1="35" y1="40" x2="37" y2="40"/><line class="b" x1="39" y1="40" x2="41" y2="40"/><rect class="a" x="11" y="11" width="42" height="42" rx="2" ry="2"/><line class="b" x1="46" y1="47" x2="48" y2="47"/><path class="a" d="M47,43V17H17V47H43A4,4,0,0,1,47,43Z"/><polyline class="a" points="57 12 57 7 52 7"/><polyline class="a" points="7 12 7 7 12 7"/><polyline class="a" points="7 52 7 57 12 57"/><polyline class="a" points="57 52 57 57 52 57"/></svg>