<svg xmlns="http://www.w3.org/2000/svg" viewBox="0 0 142.25 127.47"><defs><style>.a{fill:none;stroke:#166bcc;stroke-miterlimit:10;stroke-width:4.5px;}.b{fill:#176ecc;}</style></defs><title>Ресурс 1</title><path class="a" d="M140,98.38v-6.7L132.9,89a23.83,23.83,0,0,0-2.49-6l3.1-6.93-4.74-4.74-6.93,3.11a24,24,0,0,0-6-2.49l-2.7-7.09h-6.71l-2.7,7.09a23.9,23.9,0,0,0-6,2.49l-6.93-3.11-4.74,4.74L89.19,83a23.84,23.84,0,0,0-2.49,6l-7.09,2.7v6.7l7.09,2.71a23.85,23.85,0,0,0,2.49,6L86.08,114l4.74,4.74,6.93-3.1a23.94,23.94,0,0,0,6,2.48l2.7,7.09h6.71l2.71-7.09a24.09,24.09,0,0,0,6-2.48l6.93,3.1,4.74-4.74-3.1-6.93a23.82,23.82,0,0,0,2.49-6Z"/><circle class="a" cx="109.8" cy="95.03" r="11.56"/><line class="a" y1="62.05" x2="12.8" y2="62.05"/><line class="a" x1="12.8" y1="79.2" x2="26.56" y2="79.2"/><line class="a" x1="12.8" y1="87.77" x2="26.56" y2="87.77"/><line class="a" x1="12.8" y1="113.48" x2="26.56" y2="113.48"/><line class="a" x1="12.8" y1="122.05" x2="26.56" y2="122.05"/><line class="a" y1="70.62" x2="26.56" y2="70.62"/><line class="a" y1="96.34" x2="12.8" y2="96.34"/><line class="a" x1="12.8" y1="44.91" x2="26.56" y2="44.91"/><line class="a" x1="12.8" y1="53.48" x2="26.56" y2="53.48"/><line class="a" y1="36.34" x2="26.56" y2="36.34"/><line class="a" y1="104.91" x2="26.56" y2="104.91"/><line class="a" x1="31.94" y1="113.48" x2="45.7" y2="113.48"/><line class="a" x1="31.94" y1="122.05" x2="58.5" y2="122.05"/><rect class="a" x="33.96" y="2.25" width="85" height="15.99"/><rect class="b" x="42.71" y="8" width="4.5" height="4.5"/><rect class="b" x="51.71" y="8" width="4.5" height="4.5"/><rect class="b" x="60.71" y="8" width="4.5" height="4.5"/><polyline class="a" points="118.96 60.65 118.96 18.24 33.96 18.24 33.96 104.91 73.62 104.91"/><line class="a" x1="42.82" y1="55.92" x2="78.12" y2="55.92"/><line class="a" x1="42.82" y1="38.77" x2="92.44" y2="38.77"/><line class="a" x1="42.82" y1="47.34" x2="80.77" y2="47.34"/><line class="a" x1="42.82" y1="30.2" x2="104.44" y2="30.2"/></svg>