<svg xmlns="http://www.w3.org/2000/svg" viewBox="0 0 64 64"><defs><style>.a{fill:none;stroke:#166bcc;stroke-miterlimit:10;stroke-width:2px;}</style></defs><title>Ресурс 1</title><path class="a" d="M38,0V25a1,1,0,0,0,1,1H64"/><path class="a" d="M0,26H25a1,1,0,0,0,1-1V0"/><path class="a" d="M64,38H39a1,1,0,0,0-1,1V64"/><path class="a" d="M26,64V39a1,1,0,0,0-1-1H0"/><path class="a" d="M19,7V18a1,1,0,0,1-1,1H7"/><circle class="a" cx="19" cy="4" r="3"/><circle class="a" cx="4" cy="19" r="3"/><path class="a" d="M45,7V18a1,1,0,0,0,1,1H57"/><circle class="a" cx="45" cy="4" r="3"/><circle class="a" cx="60" cy="19" r="3"/><path class="a" d="M45,57V46a1,1,0,0,1,1-1H57"/><circle class="a" cx="45" cy="60" r="3"/><circle class="a" cx="60" cy="45" r="3"/><path class="a" d="M19,57V46a1,1,0,0,0-1-1H7"/><circle class="a" cx="19" cy="60" r="3"/><circle class="a" cx="4" cy="45" r="3"/><line class="a" x1="32" y1="29" x2="32" y2="27"/><line class="a" x1="32" y1="25" x2="32" y2="23"/><line class="a" x1="32" y1="21" x2="32" y2="19"/><line class="a" x1="32" y1="45" x2="32" y2="43"/><line class="a" x1="32" y1="41" x2="32" y2="39"/><line class="a" x1="32" y1="37" x2="32" y2="35"/><line class="a" x1="29" y1="32" x2="27" y2="32"/><line class="a" x1="25" y1="32" x2="23" y2="32"/><line class="a" x1="21" y1="32" x2="19" y2="32"/><line class="a" x1="45" y1="32" x2="43" y2="32"/><line class="a" x1="41" y1="32" x2="39" y2="32"/><line class="a" x1="37" y1="32" x2="35" y2="32"/><line class="a" x1="47" y1="32" x2="64" y2="32"/><line class="a" y1="32" x2="17" y2="32"/><line class="a" x1="32" y1="47" x2="32" y2="64"/><line class="a" x1="32" x2="32" y2="17"/></svg>