<svg xmlns="http://www.w3.org/2000/svg" viewBox="0 0 62 56"><defs><style>.a{fill:none;stroke:#166bcc;stroke-miterlimit:10;stroke-width:2px;}</style></defs><title>Ресурс 1</title><rect class="a" x="1" y="9" width="60" height="46"/><rect class="a" x="1" y="1" width="60" height="8"/><line class="a" x1="4" y1="5" x2="6" y2="5"/><line class="a" x1="8" y1="5" x2="10" y2="5"/><line class="a" x1="12" y1="5" x2="14" y2="5"/><line class="a" x1="16" y1="5" x2="58" y2="5"/><rect class="a" x="5" y="30" width="12" height="12"/><path class="a" d="M15,30V26a4,4,0,0,0-8,0v4"/><polyline class="a" points="5 19 5 13 57 13 57 19"/><polyline class="a" points="5 45 5 51 57 51 57 45"/><rect class="a" x="29" y="22" width="28" height="8"/><line class="a" x1="32" y1="26" x2="38" y2="26"/><line class="a" x1="40" y1="26" x2="46" y2="26"/><line class="a" x1="48" y1="26" x2="54" y2="26"/><rect class="a" x="21" y="22" width="8" height="8"/><rect class="a" x="29" y="34" width="28" height="8"/><line class="a" x1="32" y1="38" x2="34" y2="38"/><line class="a" x1="36" y1="38" x2="38" y2="38"/><line class="a" x1="40" y1="38" x2="42" y2="38"/><line class="a" x1="44" y1="38" x2="46" y2="38"/><line class="a" x1="48" y1="38" x2="50" y2="38"/><line class="a" x1="52" y1="38" x2="54" y2="38"/><rect class="a" x="21" y="34" width="8" height="8"/></svg>