<svg xmlns="http://www.w3.org/2000/svg" viewBox="0 0 107.52 117.88"><defs><style>.a{fill:#176ecc;}</style></defs><title>Ресурс 1</title><rect class="a" x="8.64" y="27.85" width="3.89" height="12.09"/><rect class="a" x="97.16" y="27.85" width="3.89" height="12.09"/><rect class="a" x="8.64" y="65.85" width="3.89" height="12.09"/><rect class="a" x="97.16" y="65.85" width="3.89" height="12.09"/><rect class="a" x="8.64" y="103.85" width="3.89" height="14.03"/><rect class="a" x="97.16" y="103.85" width="3.89" height="14.03"/><rect class="a" x="17.06" y="114" width="73.41" height="3.89"/><rect class="a" x="42.96" y="8.63" width="4.32" height="3.89"/><rect class="a" x="8.42" y="8.63" width="4.32" height="3.89"/><rect class="a" x="17.06" y="8.63" width="4.32" height="3.89"/><rect class="a" x="25.69" y="8.63" width="4.32" height="3.89"/><rect class="a" x="34.33" y="8.63" width="4.32" height="3.89"/><rect class="a" x="8.42" y="17.27" width="4.32" height="3.89"/><rect class="a" x="17.06" y="17.27" width="4.32" height="3.89"/><rect class="a" x="25.69" y="17.27" width="4.32" height="3.89"/><rect class="a" x="34.33" y="17.27" width="4.32" height="3.89"/><rect class="a" x="42.96" y="17.27" width="4.32" height="3.89"/><path class="a" d="M103.85,29.79H3.67A3.68,3.68,0,0,1,0,26.12V3.67A3.67,3.67,0,0,1,3.67,0H103.85a3.67,3.67,0,0,1,3.67,3.67V26.12A3.68,3.68,0,0,1,103.85,29.79Zm-100-3.89h99.75v-22H3.89Z"/><path class="a" d="M94.78,21.16A6.26,6.26,0,1,1,101,14.9,6.27,6.27,0,0,1,94.78,21.16Zm0-8.64a2.38,2.38,0,1,0,2.38,2.38A2.38,2.38,0,0,0,94.78,12.52Z"/><path class="a" d="M79.67,21.16a6.26,6.26,0,1,1,6.26-6.26A6.27,6.27,0,0,1,79.67,21.16Zm0-8.64A2.38,2.38,0,1,0,82,14.9,2.38,2.38,0,0,0,79.67,12.52Z"/><rect class="a" x="42.96" y="46.63" width="4.32" height="3.89"/><rect class="a" x="8.42" y="46.63" width="4.32" height="3.89"/><rect class="a" x="17.06" y="46.63" width="4.32" height="3.89"/><rect class="a" x="25.69" y="46.63" width="4.32" height="3.89"/><rect class="a" x="34.33" y="46.63" width="4.32" height="3.89"/><rect class="a" x="8.42" y="55.27" width="4.32" height="3.89"/><rect class="a" x="17.06" y="55.27" width="4.32" height="3.89"/><rect class="a" x="25.69" y="55.27" width="4.32" height="3.89"/><rect class="a" x="34.33" y="55.27" width="4.32" height="3.89"/><rect class="a" x="42.96" y="55.27" width="4.32" height="3.89"/><path class="a" d="M103.85,67.79H3.67A3.67,3.67,0,0,1,0,64.12V41.67A3.67,3.67,0,0,1,3.67,38H103.85a3.67,3.67,0,0,1,3.67,3.67V64.12A3.67,3.67,0,0,1,103.85,67.79Zm-100-3.89h99.75v-22H3.89Z"/><path class="a" d="M94.78,59.16A6.26,6.26,0,1,1,101,52.9,6.27,6.27,0,0,1,94.78,59.16Zm0-8.64a2.38,2.38,0,1,0,2.38,2.38A2.38,2.38,0,0,0,94.78,50.52Z"/><path class="a" d="M79.67,59.16a6.26,6.26,0,1,1,6.26-6.26A6.27,6.27,0,0,1,79.67,59.16Zm0-8.64A2.38,2.38,0,1,0,82,52.9,2.38,2.38,0,0,0,79.67,50.52Z"/><rect class="a" x="42.96" y="84.63" width="4.32" height="3.89"/><rect class="a" x="8.42" y="84.63" width="4.32" height="3.89"/><rect class="a" x="17.06" y="84.63" width="4.32" height="3.89"/><rect class="a" x="25.69" y="84.63" width="4.32" height="3.89"/><rect class="a" x="34.33" y="84.63" width="4.32" height="3.89"/><rect class="a" x="8.42" y="93.27" width="4.32" height="3.89"/><rect class="a" x="17.06" y="93.27" width="4.32" height="3.89"/><rect class="a" x="25.69" y="93.27" width="4.32" height="3.89"/><rect class="a" x="34.33" y="93.27" width="4.32" height="3.89"/><rect class="a" x="42.96" y="93.27" width="4.32" height="3.89"/><path class="a" d="M103.85,105.79H3.67A3.67,3.67,0,0,1,0,102.12V79.67A3.67,3.67,0,0,1,3.67,76H103.85a3.67,3.67,0,0,1,3.67,3.67v22.45A3.67,3.67,0,0,1,103.85,105.79Zm-100-3.89h99.75v-22H3.89Z"/><path class="a" d="M94.78,97.16A6.26,6.26,0,1,1,101,90.89,6.27,6.27,0,0,1,94.78,97.16Zm0-8.64a2.38,2.38,0,1,0,2.38,2.38A2.38,2.38,0,0,0,94.78,88.52Z"/><path class="a" d="M79.67,97.16a6.26,6.26,0,1,1,6.26-6.26A6.27,6.27,0,0,1,79.67,97.16Zm0-8.64A2.38,2.38,0,1,0,82,90.89,2.38,2.38,0,0,0,79.67,88.52Z"/></svg>