<svg xmlns="http://www.w3.org/2000/svg" viewBox="0 0 62 64"><defs><style>.cls-1,.cls-2{fill:none;stroke:#176ecc;stroke-width:2px;}.cls-1{stroke-miterlimit:10;}.cls-2{stroke-linecap:square;stroke-linejoin:round;}</style></defs><title>Ресурс 1</title><g id="Слой_2" data-name="Слой 2"><g id="Layer_1" data-name="Layer 1"><circle class="cls-1" cx="31" cy="61" r="2"/><line class="cls-1" x1="31" y1="55" x2="31" y2="59"/><line class="cls-1" x1="36" y1="61" x2="58" y2="61"/><line class="cls-1" x1="4" y1="61" x2="26" y2="61"/><rect class="cls-1" x="1" y="9" width="60" height="46"/><rect class="cls-1" x="1" y="1" width="60" height="8"/><line class="cls-1" x1="4" y1="5" x2="6" y2="5"/><line class="cls-1" x1="8" y1="5" x2="10" y2="5"/><line class="cls-1" x1="12" y1="5" x2="14" y2="5"/><line class="cls-1" x1="16" y1="5" x2="58" y2="5"/><polyline class="cls-2" points="23 28 23 32 21 36 19 32 19 28"/><polyline class="cls-2" points="19 28 19 32 17 36 15 32 15 28"/><polyline class="cls-2" points="35 28 35 32 33 36 31 32 31 28"/><polyline class="cls-2" points="31 28 31 32 29 36 27 32 27 28"/><polyline class="cls-2" points="47 28 47 32 45 36 43 32 43 28"/><polyline class="cls-2" points="43 28 43 32 41 36 39 32 39 28"/><line class="cls-1" x1="52" y1="36" x2="50" y2="36"/><line class="cls-1" x1="12" y1="36" x2="10" y2="36"/><rect class="cls-1" x="5" y="41" width="52" height="10"/><rect class="cls-1" x="5" y="13" width="52" height="10"/><line class="cls-1" x1="14" y1="18" x2="21" y2="18"/><line class="cls-1" x1="23" y1="18" x2="30" y2="18"/><line class="cls-1" x1="32" y1="18" x2="39" y2="18"/><line class="cls-1" x1="41" y1="18" x2="48" y2="18"/><line class="cls-1" x1="26" y1="46" x2="28" y2="46"/><line class="cls-1" x1="30" y1="46" x2="32" y2="46"/><line class="cls-1" x1="34" y1="46" x2="36" y2="46"/></g></g></svg>