<svg xmlns="http://www.w3.org/2000/svg" viewBox="0 0 94.63 103.2"><defs><style>.cls-1{fill:#176ecc;}</style></defs><title>Ресурс 1</title><g id="Слой_2" data-name="Слой 2"><g id="Layer_1" data-name="Layer 1"><polygon class="cls-1" points="94.63 103.2 0 103.2 0 45.02 11.18 36.94 13.46 40.09 3.89 47.01 3.89 99.32 90.74 99.32 90.74 47.01 81.17 40.09 83.44 36.94 94.63 45.02 94.63 103.2"/><rect class="cls-1" x="37.6" y="91.21" width="3.89" height="3.89"/><rect class="cls-1" x="45.37" y="91.21" width="3.89" height="3.89"/><rect class="cls-1" x="53.14" y="91.21" width="3.89" height="3.89"/><polygon class="cls-1" points="84.25 52.33 80.36 52.33 80.36 15.7 68.55 3.89 14.26 3.89 14.26 52.33 10.38 52.33 10.38 0 70.16 0 84.25 14.09 84.25 52.33"/><path class="cls-1" d="M82.31,16.84H67.41V1.94a1.94,1.94,0,0,1,3.89,0V13h11a1.94,1.94,0,0,1,0,3.89Z"/><rect class="cls-1" x="43.44" y="57.88" width="53.12" height="3.89" transform="translate(-20.9 45.14) rotate(-31.34)"/><rect class="cls-1" x="22.69" y="33.27" width="3.89" height="53.12" transform="translate(-39.28 49.74) rotate(-58.66)"/><polygon class="cls-1" points="2.95 102.92 0.93 99.6 47.31 71.37 93.69 99.6 91.67 102.92 47.31 75.92 2.95 102.92"/><path class="cls-1" d="M47.31,56.87A19.22,19.22,0,1,1,66.53,37.65a1.94,1.94,0,1,1-3.89,0A15.31,15.31,0,1,0,55,50.94a1.94,1.94,0,0,1,1.95,3.36A19.2,19.2,0,0,1,47.31,56.87Z"/><path class="cls-1" d="M47.31,48.24A10.58,10.58,0,1,1,57.9,37.66,10.59,10.59,0,0,1,47.31,48.24Zm0-17.28A6.69,6.69,0,1,0,54,37.66,6.7,6.7,0,0,0,47.31,31Z"/><path class="cls-1" d="M60.27,48.24A6.27,6.27,0,0,1,54,42V37.66a1.94,1.94,0,0,1,3.89,0V42a2.32,2.32,0,0,0,.69,1.67,2.44,2.44,0,0,0,3.38,0A2.37,2.37,0,0,0,62.64,42V37.66a1.94,1.94,0,0,1,3.89,0V42a6.23,6.23,0,0,1-6.26,6.26Z"/></g></g></svg>