<svg xmlns="http://www.w3.org/2000/svg" viewBox="0 0 54 62"><defs><style>.cls-1,.cls-2{fill:none;stroke:#176ecc;stroke-miterlimit:10;stroke-width:2px;}.cls-2{stroke-dasharray:2 2;}</style></defs><title>Ресурс 1</title><g id="Слой_2" data-name="Слой 2"><g id="Layer_1" data-name="Layer 1"><polyline class="cls-1" points="1 9 1 61 53 61 53 9"/><rect class="cls-1" x="1" y="1" width="52" height="8"/><line class="cls-1" x1="4" y1="5" x2="6" y2="5"/><line class="cls-1" x1="8" y1="5" x2="10" y2="5"/><line class="cls-1" x1="12" y1="5" x2="14" y2="5"/><line class="cls-1" x1="16" y1="5" x2="50" y2="5"/><polyline class="cls-1" points="49 36 49 37 48 37"/><line class="cls-2" x1="46" y1="37" x2="7" y2="37"/><polyline class="cls-1" points="6 37 5 37 5 36"/><line class="cls-2" x1="5" y1="34" x2="5" y2="15"/><polyline class="cls-1" points="5 14 5 13 6 13"/><line class="cls-2" x1="8" y1="13" x2="47" y2="13"/><polyline class="cls-1" points="48 13 49 13 49 14"/><line class="cls-2" x1="49" y1="16" x2="49" y2="35"/><rect class="cls-1" x="5" y="41" width="8" height="8"/><rect class="cls-1" x="17" y="41" width="8" height="8"/><rect class="cls-1" x="29" y="41" width="8" height="8"/><rect class="cls-1" x="41" y="41" width="8" height="8"/><line class="cls-1" x1="4" y1="53" x2="14" y2="53"/><line class="cls-1" x1="6" y1="57" x2="12" y2="57"/><line class="cls-1" x1="16" y1="53" x2="26" y2="53"/><line class="cls-1" x1="18" y1="57" x2="24" y2="57"/><line class="cls-1" x1="28" y1="53" x2="38" y2="53"/><line class="cls-1" x1="30" y1="57" x2="36" y2="57"/><line class="cls-1" x1="40" y1="53" x2="50" y2="53"/><line class="cls-1" x1="42" y1="57" x2="48" y2="57"/></g></g></svg>