<svg xmlns="http://www.w3.org/2000/svg" viewBox="0 0 64 56"><defs><style>.cls-1{fill:none;stroke:#176ecc;stroke-miterlimit:10;stroke-width:2px;}</style></defs><title>Ресурс 1</title><g id="Слой_2" data-name="Слой 2"><g id="Layer_1" data-name="Layer 1"><path class="cls-1" d="M40,45H4a3,3,0,0,1-3-3V37H40"/><line class="cls-1" x1="40" y1="55" x2="18" y2="55"/><line class="cls-1" x1="36" y1="55" x2="36" y2="45"/><line class="cls-1" x1="22" y1="45" x2="22" y2="55"/><line class="cls-1" x1="26" y1="41" x2="32" y2="41"/><path class="cls-1" d="M57,18V4a3,3,0,0,0-3-3H4A3,3,0,0,0,1,4V37"/><polyline class="cls-1" points="40 33 5 33 5 5 53 5 53 18"/><rect class="cls-1" x="43" y="21" width="20" height="34" rx="2" ry="2"/><line class="cls-1" x1="51" y1="51" x2="55" y2="51"/><line class="cls-1" x1="54" y1="25" x2="52" y2="25"/><line class="cls-1" x1="43" y1="29" x2="63" y2="29"/></g></g></svg>