<svg xmlns="http://www.w3.org/2000/svg" viewBox="0 0 64 60"><defs><style>.cls-1,.cls-2{fill:none;stroke:#176ecc;stroke-width:2px;}.cls-1{stroke-miterlimit:10;}.cls-2{stroke-linejoin:round;}</style></defs><title>Ресурс 1</title><g id="Слой_2" data-name="Слой 2"><g id="Layer_1" data-name="Layer 1"><polyline class="cls-1" points="61 37 61 29 58 29"/><line class="cls-1" x1="58" y1="37" x2="64" y2="37"/><line class="cls-1" x1="61" y1="26" x2="61" y2="24"/><polyline class="cls-1" points="7 21 7 9 12 9"/><line class="cls-1" x1="10" y1="15" x2="4" y2="15"/><rect class="cls-1" x="1" y="5" width="14" height="19"/><polyline class="cls-2" points="47 38 49 38 55 44 55 37"/><polyline class="cls-1" points="55 37 55 14 19 14 19 38 47 38"/><polyline class="cls-1" points="19 14 37 26 55 14"/><line class="cls-1" x1="32" y1="32" x2="34" y2="32"/><line class="cls-1" x1="36" y1="32" x2="38" y2="32"/><line class="cls-1" x1="40" y1="32" x2="42" y2="32"/><polyline class="cls-1" points="13 50 37 50 37 41"/><polyline class="cls-2" points="5 52 5 56 11 50 13 50"/><polyline class="cls-1" points="16 30 1 30 1 50 5 50 5 52"/><line class="cls-1" x1="4" y1="34" x2="16" y2="34"/><line class="cls-1" x1="4" y1="38" x2="16" y2="38"/><line class="cls-1" x1="4" y1="42" x2="34" y2="42"/><line class="cls-1" x1="16" y1="46" x2="34" y2="46"/><path class="cls-1" d="M51,56a3,3,0,0,1-6,0V47"/><line class="cls-1" x1="42" y1="50" x2="48" y2="50"/><line class="cls-1" x1="55" y1="5" x2="55" y2="11"/><line class="cls-1" x1="52" y1="8" x2="58" y2="8"/><line class="cls-1" x1="23" y1="1" x2="39" y2="1"/><line class="cls-1" x1="23" y1="5" x2="31" y2="5"/></g></g></svg>